<svg width="26" height="26" xmlns="http://www.w3.org/2000/svg">

 <g>
  <title>background</title>
  <rect fill="none" id="canvas_background" height="402" width="582" y="-1" x="-1"/>
 </g>
 <g>
  <title>Layer 1</title>
  <path id="svg_2" fill="#7f7f7f" d="m6.75,18.5l-5,0c-0.41406,0 -0.75,0.33594 -0.75,0.75l0,5c0,0.41406 0.33594,0.75 0.75,0.75l5,0c0.41406,0 0.75,-0.33594 0.75,-0.75l0,-5c0,-0.41406 -0.33594,-0.75 -0.75,-0.75zm-0.75,5l-3.5,0l0,-3.5l3.5,0l0,3.5z"/>
  <path id="svg_3" fill="#7f7f7f" d="m24.25,18.5l-5,0c-0.41406,0 -0.75,0.33594 -0.75,0.75l0,5c0,0.41406 0.33594,0.75 0.75,0.75l5,0c0.41406,0 0.75,-0.33594 0.75,-0.75l0,-5c0,-0.41406 -0.33594,-0.75 -0.75,-0.75zm-0.75,5l-3.5,0l0,-3.5l3.5,0l0,3.5z"/>
  <path id="svg_4" fill="#7f7f7f" d="m15.5,18.5l-5,0c-0.41406,0 -0.75,0.33594 -0.75,0.75l0,5c0,0.41406 0.33594,0.75 0.75,0.75l5,0c0.41406,0 0.75,-0.33594 0.75,-0.75l0,-5c0,-0.41406 -0.33594,-0.75 -0.75,-0.75zm-0.75,5l-3.5,0l0,-3.5l3.5,0l0,3.5z"/>
  <path id="svg_5" fill="#7f7f7f" d="m6.75,9.75l-5,0c-0.41406,0 -0.75,0.33594 -0.75,0.75l0,5c0,0.41406 0.33594,0.75 0.75,0.75l5,0c0.41406,0 0.75,-0.33594 0.75,-0.75l0,-5c0,-0.41406 -0.33594,-0.75 -0.75,-0.75zm-0.75,5l-3.5,0l0,-3.5l3.5,0l0,3.5z"/>
  <path id="svg_6" fill="#7f7f7f" d="m24.25,9.75l-5,0c-0.41406,0 -0.75,0.33594 -0.75,0.75l0,5c0,0.41406 0.33594,0.75 0.75,0.75l5,0c0.41406,0 0.75,-0.33594 0.75,-0.75l0,-5c0,-0.41406 -0.33594,-0.75 -0.75,-0.75zm-0.75,5l-3.5,0l0,-3.5l3.5,0l0,3.5z"/>
  <path id="svg_7" fill="#7f7f7f" d="m15.5,9.75l-5,0c-0.41406,0 -0.75,0.33594 -0.75,0.75l0,5c0,0.41406 0.33594,0.75 0.75,0.75l5,0c0.41406,0 0.75,-0.33594 0.75,-0.75l0,-5c0,-0.41406 -0.33594,-0.75 -0.75,-0.75zm-0.75,5l-3.5,0l0,-3.5l3.5,0l0,3.5z"/>
  <path id="svg_8" fill="#7f7f7f" d="m6.75,1l-5,0c-0.41406,0 -0.75,0.33594 -0.75,0.75l0,5c0,0.41406 0.33594,0.75 0.75,0.75l5,0c0.41406,0 0.75,-0.33594 0.75,-0.75l0,-5c0,-0.41406 -0.33594,-0.75 -0.75,-0.75zm-0.75,5l-3.5,0l0,-3.5l3.5,0l0,3.5z"/>
  <path id="svg_9" fill="#7f7f7f" d="m24.25,1l-5,0c-0.41406,0 -0.75,0.33594 -0.75,0.75l0,5c0,0.41406 0.33594,0.75 0.75,0.75l5,0c0.41406,0 0.75,-0.33594 0.75,-0.75l0,-5c0,-0.41406 -0.33594,-0.75 -0.75,-0.75zm-0.75,5l-3.5,0l0,-3.5l3.5,0l0,3.5z"/>
  <path id="svg_10" fill="#7f7f7f" d="m15.5,1l-5,0c-0.41406,0 -0.75,0.33594 -0.75,0.75l0,5c0,0.41406 0.33594,0.75 0.75,0.75l5,0c0.41406,0 0.75,-0.33594 0.75,-0.75l0,-5c0,-0.41406 -0.33594,-0.75 -0.75,-0.75zm-0.75,5l-3.5,0l0,-3.5l3.5,0l0,3.5z"/>
 </g>
</svg>